<?xml version="1.0" encoding="UTF-8" standalone="no"?>
<!-- Created with Inkscape (http://www.inkscape.org/) -->

<svg
   width="50mm"
   height="50mm"
   viewBox="0 0 50 50"
   version="1.1"
   id="svg5"
   inkscape:version="1.1 (c4e8f9e, 2021-05-24)"
   sodipodi:docname="buttonE.svg"
   xmlns:inkscape="http://www.inkscape.org/namespaces/inkscape"
   xmlns:sodipodi="http://sodipodi.sourceforge.net/DTD/sodipodi-0.dtd"
   xmlns="http://www.w3.org/2000/svg"
   xmlns:svg="http://www.w3.org/2000/svg">
  <sodipodi:namedview
     id="namedview7"
     pagecolor="#ffffff"
     bordercolor="#666666"
     borderopacity="1.0"
     inkscape:pageshadow="2"
     inkscape:pageopacity="0.0"
     inkscape:pagecheckerboard="0"
     inkscape:document-units="mm"
     showgrid="false"
     width="50mm"
     inkscape:zoom="5.8049583"
     inkscape:cx="94.488189"
     inkscape:cy="93.110057"
     inkscape:window-width="2560"
     inkscape:window-height="1281"
     inkscape:window-x="0"
     inkscape:window-y="25"
     inkscape:window-maximized="1"
     inkscape:current-layer="layer1"
     inkscape:snap-smooth-nodes="true"
     inkscape:snap-page="false"
     inkscape:snap-bbox="true" />
  <defs
     id="defs2">
    <rect
       x="91.083494"
       y="66.067605"
       width="30.788787"
       height="61.256857"
       id="rect7063" />
    <inkscape:path-effect
       effect="spiro"
       id="path-effect5692"
       is_visible="true"
       lpeversion="1" />
  </defs>
  <g
     inkscape:label="Layer 1"
     inkscape:groupmode="layer"
     id="layer1">
    <text
       xml:space="preserve"
       transform="scale(0.26458333)"
       id="text7061"
       style="fill:black;fill-opacity:1;line-height:1.25;stroke:none;font-family:sans-serif;font-style:normal;font-weight:normal;font-size:40px;white-space:pre;shape-inside:url(#rect7063)" />
    <text
       xml:space="preserve"
       style="font-style:normal;font-weight:normal;font-size:5.61369px;line-height:1.25;font-family:sans-serif;fill:#cacad2;fill-opacity:1;stroke:none;stroke-width:0.959483"
       x="25.941391"
       y="45.160282"
       id="text7974"
       transform="scale(0.9555323,1.0465371)"><tspan
         sodipodi:role="line"
         id="tspan7972"
         style="font-style:normal;font-variant:normal;font-weight:normal;font-stretch:normal;font-size:5.61369px;font-family:Futura;-inkscape-font-specification:Futura;text-align:center;text-anchor:middle;fill:#cacad2;fill-opacity:1;stroke-width:0.959483"
         x="25.941391"
         y="45.160282">ENVIRONMENT</tspan></text>
    <g
       id="g1930"
       transform="matrix(-0.05859375,0,0,0.08564027,20,-11.987335)" />
    <g
       id="g1932"
       transform="matrix(-0.05859375,0,0,0.08564027,20,-11.987335)" />
    <g
       id="g1934"
       transform="matrix(-0.05859375,0,0,0.08564027,20,-11.987335)" />
    <g
       id="g1936"
       transform="matrix(-0.05859375,0,0,0.08564027,20,-11.987335)" />
    <g
       id="g1938"
       transform="matrix(-0.05859375,0,0,0.08564027,20,-11.987335)" />
    <g
       id="g1940"
       transform="matrix(-0.05859375,0,0,0.08564027,20,-11.987335)" />
    <g
       id="g1942"
       transform="matrix(-0.05859375,0,0,0.08564027,20,-11.987335)" />
    <g
       id="g1944"
       transform="matrix(-0.05859375,0,0,0.08564027,20,-11.987335)" />
    <g
       id="g1946"
       transform="matrix(-0.05859375,0,0,0.08564027,20,-11.987335)" />
    <g
       id="g1948"
       transform="matrix(-0.05859375,0,0,0.08564027,20,-11.987335)" />
    <g
       id="g1950"
       transform="matrix(-0.05859375,0,0,0.08564027,20,-11.987335)" />
    <g
       id="g1952"
       transform="matrix(-0.05859375,0,0,0.08564027,20,-11.987335)" />
    <g
       id="g1954"
       transform="matrix(-0.05859375,0,0,0.08564027,20,-11.987335)" />
    <g
       id="g1956"
       transform="matrix(-0.05859375,0,0,0.08564027,20,-11.987335)" />
    <g
       id="g1958"
       transform="matrix(-0.05859375,0,0,0.08564027,20,-11.987335)" />
    <g
       id="g2423"
       transform="matrix(0.03355885,0,0,0.03906258,28.908935,10)"
       style="fill:#cacad2;fill-opacity:1">
      <g
         id="g2421"
         style="fill:#cacad2;fill-opacity:1">
        <path
           d="M 469.289,48.943 H 361.93 c -5.632,0 -10.199,4.566 -10.199,10.199 V 246.889 H 281.755 V 163.553 10.199 C 281.755,4.566 277.188,0 271.556,0 h -61.352 c -5.632,0 -10.199,4.566 -10.199,10.199 V 153.353 H 177.467 V 96.892 c 0,-5.633 -4.567,-10.199 -10.199,-10.199 -5.632,0 -10.199,4.566 -10.199,10.199 v 56.461 h -11.034 c -5.632,0 -10.199,4.566 -10.199,10.199 v 49.619 H 83.634 v -37.745 c 0,-5.633 -4.567,-10.199 -10.199,-10.199 -5.632,0 -10.199,4.566 -10.199,10.199 v 37.746 H 42.711 c -5.632,0 -10.199,4.566 -10.199,10.199 V 501.8 c 0,5.633 4.567,10.199 10.199,10.199 h 426.578 c 5.632,0 10.199,-4.566 10.199,-10.199 V 59.142 c 0,-5.633 -4.567,-10.199 -10.199,-10.199 z M 135.835,491.602 H 52.91 V 233.571 h 82.925 z m 125.522,0 H 156.233 v -317.85 h 105.123 v 317.85 z m 0,-338.249 H 220.403 V 20.398 h 40.954 z m 90.366,338.249 H 281.755 V 267.286 h 69.968 z m 107.367,0 H 372.13 V 69.341 h 86.96 z"
           id="path2419"
           style="fill:#cacad2;fill-opacity:1" />
      </g>
    </g>
    <g
       id="g2429"
       transform="matrix(0.03355885,0,0,0.03906258,28.908935,10)"
       style="fill:#cacad2;fill-opacity:1">
      <g
         id="g2427"
         style="fill:#cacad2;fill-opacity:1">
        <path
           d="m 186.276,199.033 c -5.632,0 -10.199,4.566 -10.199,10.199 v 13.542 c 0,5.633 4.566,10.199 10.199,10.199 5.632,0 10.199,-4.566 10.199,-10.199 v -13.542 c 0,-5.632 -4.567,-10.199 -10.199,-10.199 z"
           id="path2425"
           style="fill:#cacad2;fill-opacity:1" />
      </g>
    </g>
    <g
       id="g2435"
       transform="matrix(0.03355885,0,0,0.03906258,28.908935,10)"
       style="fill:#cacad2;fill-opacity:1">
      <g
         id="g2433"
         style="fill:#cacad2;fill-opacity:1">
        <path
           d="m 229.781,199.033 c -5.632,0 -10.199,4.566 -10.199,10.199 v 13.542 c 0,5.633 4.567,10.199 10.199,10.199 5.632,0 10.199,-4.566 10.199,-10.199 v -13.542 c 0,-5.632 -4.567,-10.199 -10.199,-10.199 z"
           id="path2431"
           style="fill:#cacad2;fill-opacity:1" />
      </g>
    </g>
    <g
       id="g2441"
       transform="matrix(0.03355885,0,0,0.03906258,28.908935,10)"
       style="fill:#cacad2;fill-opacity:1">
      <g
         id="g2439"
         style="fill:#cacad2;fill-opacity:1">
        <path
           d="m 240.656,105.499 c -5.632,0 -10.199,4.566 -10.199,10.199 v 13.542 c 0,5.633 4.567,10.199 10.199,10.199 5.632,0 10.199,-4.566 10.199,-10.199 v -13.542 c 0.001,-5.633 -4.566,-10.199 -10.199,-10.199 z"
           id="path2437"
           style="fill:#cacad2;fill-opacity:1" />
      </g>
    </g>
    <g
       id="g2447"
       transform="matrix(0.03355885,0,0,0.03906258,28.908935,10)"
       style="fill:#cacad2;fill-opacity:1">
      <g
         id="g2445"
         style="fill:#cacad2;fill-opacity:1">
        <path
           d="m 240.656,52.206 c -5.632,0 -10.199,4.566 -10.199,10.199 v 13.542 c 0,5.633 4.567,10.199 10.199,10.199 5.632,0 10.199,-4.566 10.199,-10.199 V 62.405 c 0.001,-5.633 -4.566,-10.199 -10.199,-10.199 z"
           id="path2443"
           style="fill:#cacad2;fill-opacity:1" />
      </g>
    </g>
    <g
       id="g2453"
       transform="matrix(0.03355885,0,0,0.03906258,28.908935,10)"
       style="fill:#cacad2;fill-opacity:1">
      <g
         id="g2451"
         style="fill:#cacad2;fill-opacity:1">
        <path
           d="m 186.276,258.412 c -5.632,0 -10.199,4.566 -10.199,10.199 v 13.542 c 0,5.633 4.566,10.199 10.199,10.199 5.632,0 10.199,-4.566 10.199,-10.199 v -13.542 c 0,-5.633 -4.567,-10.199 -10.199,-10.199 z"
           id="path2449"
           style="fill:#cacad2;fill-opacity:1" />
      </g>
    </g>
    <g
       id="g2459"
       transform="matrix(0.03355885,0,0,0.03906258,28.908935,10)"
       style="fill:#cacad2;fill-opacity:1">
      <g
         id="g2457"
         style="fill:#cacad2;fill-opacity:1">
        <path
           d="m 229.781,258.412 c -5.632,0 -10.199,4.566 -10.199,10.199 v 13.542 c 0,5.633 4.567,10.199 10.199,10.199 5.632,0 10.199,-4.566 10.199,-10.199 v -13.542 c 0,-5.633 -4.567,-10.199 -10.199,-10.199 z"
           id="path2455"
           style="fill:#cacad2;fill-opacity:1" />
      </g>
    </g>
    <g
       id="g2465"
       transform="matrix(0.03355885,0,0,0.03906258,28.908935,10)"
       style="fill:#cacad2;fill-opacity:1">
      <g
         id="g2463"
         style="fill:#cacad2;fill-opacity:1">
        <path
           d="m 186.276,313.622 c -5.632,0 -10.199,4.566 -10.199,10.199 v 13.543 c 0,5.633 4.566,10.199 10.199,10.199 5.632,0 10.199,-4.566 10.199,-10.199 v -13.542 c 0,-5.633 -4.567,-10.2 -10.199,-10.2 z"
           id="path2461"
           style="fill:#cacad2;fill-opacity:1" />
      </g>
    </g>
    <g
       id="g2471"
       transform="matrix(0.03355885,0,0,0.03906258,28.908935,10)"
       style="fill:#cacad2;fill-opacity:1">
      <g
         id="g2469"
         style="fill:#cacad2;fill-opacity:1">
        <path
           d="m 229.781,313.622 c -5.632,0 -10.199,4.566 -10.199,10.199 v 13.543 c 0,5.633 4.567,10.199 10.199,10.199 5.632,0 10.199,-4.566 10.199,-10.199 v -13.542 c 0,-5.633 -4.567,-10.2 -10.199,-10.2 z"
           id="path2467"
           style="fill:#cacad2;fill-opacity:1" />
      </g>
    </g>
    <g
       id="g2477"
       transform="matrix(0.03355885,0,0,0.03906258,28.908935,10)"
       style="fill:#cacad2;fill-opacity:1">
      <g
         id="g2475"
         style="fill:#cacad2;fill-opacity:1">
        <path
           d="m 186.276,373.001 c -5.632,0 -10.199,4.566 -10.199,10.199 v 13.543 c 0,5.633 4.566,10.199 10.199,10.199 5.632,0 10.199,-4.566 10.199,-10.199 V 383.2 c 0,-5.633 -4.567,-10.199 -10.199,-10.199 z"
           id="path2473"
           style="fill:#cacad2;fill-opacity:1" />
      </g>
    </g>
    <g
       id="g2483"
       transform="matrix(0.03355885,0,0,0.03906258,28.908935,10)"
       style="fill:#cacad2;fill-opacity:1">
      <g
         id="g2481"
         style="fill:#cacad2;fill-opacity:1">
        <path
           d="m 229.781,373.001 c -5.632,0 -10.199,4.566 -10.199,10.199 v 13.543 c 0,5.633 4.567,10.199 10.199,10.199 5.632,0 10.199,-4.566 10.199,-10.199 V 383.2 c 0,-5.633 -4.567,-10.199 -10.199,-10.199 z"
           id="path2479"
           style="fill:#cacad2;fill-opacity:1" />
      </g>
    </g>
    <g
       id="g2489"
       transform="matrix(0.03355885,0,0,0.03906258,28.908935,10)"
       style="fill:#cacad2;fill-opacity:1">
      <g
         id="g2487"
         style="fill:#cacad2;fill-opacity:1">
        <path
           d="m 186.276,432.379 c -5.632,0 -10.199,4.566 -10.199,10.199 v 13.543 c 0,5.633 4.566,10.199 10.199,10.199 5.632,0 10.199,-4.566 10.199,-10.199 v -13.542 c 0,-5.634 -4.567,-10.2 -10.199,-10.2 z"
           id="path2485"
           style="fill:#cacad2;fill-opacity:1" />
      </g>
    </g>
    <g
       id="g2495"
       transform="matrix(0.03355885,0,0,0.03906258,28.908935,10)"
       style="fill:#cacad2;fill-opacity:1">
      <g
         id="g2493"
         style="fill:#cacad2;fill-opacity:1">
        <path
           d="m 229.781,432.379 c -5.632,0 -10.199,4.566 -10.199,10.199 v 13.543 c 0,5.633 4.567,10.199 10.199,10.199 5.632,0 10.199,-4.566 10.199,-10.199 v -13.542 c 0,-5.634 -4.567,-10.2 -10.199,-10.2 z"
           id="path2491"
           style="fill:#cacad2;fill-opacity:1" />
      </g>
    </g>
    <g
       id="g2501"
       transform="matrix(0.03355885,0,0,0.03906258,28.908935,10)"
       style="fill:#cacad2;fill-opacity:1">
      <g
         id="g2499"
         style="fill:#cacad2;fill-opacity:1">
        <path
           d="m 398.361,199.033 c -5.632,0 -10.199,4.566 -10.199,10.199 v 13.542 c 0,5.633 4.567,10.199 10.199,10.199 5.632,0 10.199,-4.566 10.199,-10.199 v -13.542 c 0,-5.632 -4.567,-10.199 -10.199,-10.199 z"
           id="path2497"
           style="fill:#cacad2;fill-opacity:1" />
      </g>
    </g>
    <g
       id="g2507"
       transform="matrix(0.03355885,0,0,0.03906258,28.908935,10)"
       style="fill:#cacad2;fill-opacity:1">
      <g
         id="g2505"
         style="fill:#cacad2;fill-opacity:1">
        <path
           d="m 436.427,199.033 c -5.632,0 -10.199,4.566 -10.199,10.199 v 13.542 c 0,5.633 4.567,10.199 10.199,10.199 5.632,0 10.199,-4.566 10.199,-10.199 v -13.542 c 0,-5.632 -4.567,-10.199 -10.199,-10.199 z"
           id="path2503"
           style="fill:#cacad2;fill-opacity:1" />
      </g>
    </g>
    <g
       id="g2513"
       transform="matrix(0.03355885,0,0,0.03906258,28.908935,10)"
       style="fill:#cacad2;fill-opacity:1">
      <g
         id="g2511"
         style="fill:#cacad2;fill-opacity:1">
        <path
           d="m 398.361,258.412 c -5.632,0 -10.199,4.566 -10.199,10.199 v 13.542 c 0,5.633 4.567,10.199 10.199,10.199 5.632,0 10.199,-4.566 10.199,-10.199 v -13.542 c 0,-5.633 -4.567,-10.199 -10.199,-10.199 z"
           id="path2509"
           style="fill:#cacad2;fill-opacity:1" />
      </g>
    </g>
    <g
       id="g2519"
       transform="matrix(0.03355885,0,0,0.03906258,28.908935,10)"
       style="fill:#cacad2;fill-opacity:1">
      <g
         id="g2517"
         style="fill:#cacad2;fill-opacity:1">
        <path
           d="m 436.427,258.412 c -5.632,0 -10.199,4.566 -10.199,10.199 v 13.542 c 0,5.633 4.567,10.199 10.199,10.199 5.632,0 10.199,-4.566 10.199,-10.199 v -13.542 c 0,-5.633 -4.567,-10.199 -10.199,-10.199 z"
           id="path2515"
           style="fill:#cacad2;fill-opacity:1" />
      </g>
    </g>
    <g
       id="g2525"
       transform="matrix(0.03355885,0,0,0.03906258,28.908935,10)"
       style="fill:#cacad2;fill-opacity:1">
      <g
         id="g2523"
         style="fill:#cacad2;fill-opacity:1">
        <path
           d="m 398.361,313.622 c -5.632,0 -10.199,4.566 -10.199,10.199 v 13.543 c 0,5.633 4.567,10.199 10.199,10.199 5.632,0 10.199,-4.566 10.199,-10.199 v -13.542 c 0,-5.633 -4.567,-10.2 -10.199,-10.2 z"
           id="path2521"
           style="fill:#cacad2;fill-opacity:1" />
      </g>
    </g>
    <g
       id="g2531"
       transform="matrix(0.03355885,0,0,0.03906258,28.908935,10)"
       style="fill:#cacad2;fill-opacity:1">
      <g
         id="g2529"
         style="fill:#cacad2;fill-opacity:1">
        <path
           d="m 436.427,313.622 c -5.632,0 -10.199,4.566 -10.199,10.199 v 13.543 c 0,5.633 4.567,10.199 10.199,10.199 5.632,0 10.199,-4.566 10.199,-10.199 v -13.542 c 0,-5.633 -4.567,-10.2 -10.199,-10.2 z"
           id="path2527"
           style="fill:#cacad2;fill-opacity:1" />
      </g>
    </g>
    <g
       id="g2537"
       transform="matrix(0.03355885,0,0,0.03906258,28.908935,10)"
       style="fill:#cacad2;fill-opacity:1">
      <g
         id="g2535"
         style="fill:#cacad2;fill-opacity:1">
        <path
           d="m 398.361,85.688 c -5.632,0 -10.199,4.566 -10.199,10.199 v 13.543 c 0,5.633 4.567,10.199 10.199,10.199 5.632,0 10.199,-4.566 10.199,-10.199 V 95.887 c 0,-5.633 -4.567,-10.199 -10.199,-10.199 z"
           id="path2533"
           style="fill:#cacad2;fill-opacity:1" />
      </g>
    </g>
    <g
       id="g2543"
       transform="matrix(0.03355885,0,0,0.03906258,28.908935,10)"
       style="fill:#cacad2;fill-opacity:1">
      <g
         id="g2541"
         style="fill:#cacad2;fill-opacity:1">
        <path
           d="m 436.427,85.688 c -5.632,0 -10.199,4.566 -10.199,10.199 v 13.543 c 0,5.633 4.567,10.199 10.199,10.199 5.632,0 10.199,-4.566 10.199,-10.199 V 95.887 c 0,-5.633 -4.567,-10.199 -10.199,-10.199 z"
           id="path2539"
           style="fill:#cacad2;fill-opacity:1" />
      </g>
    </g>
    <g
       id="g2549"
       transform="matrix(0.03355885,0,0,0.03906258,28.908935,10)"
       style="fill:#cacad2;fill-opacity:1">
      <g
         id="g2547"
         style="fill:#cacad2;fill-opacity:1">
        <path
           d="m 398.361,140.899 c -5.632,0 -10.199,4.566 -10.199,10.199 v 13.542 c 0,5.633 4.567,10.199 10.199,10.199 5.632,0 10.199,-4.566 10.199,-10.199 v -13.542 c 0,-5.633 -4.567,-10.199 -10.199,-10.199 z"
           id="path2545"
           style="fill:#cacad2;fill-opacity:1" />
      </g>
    </g>
    <g
       id="g2555"
       transform="matrix(0.03355885,0,0,0.03906258,28.908935,10)"
       style="fill:#cacad2;fill-opacity:1">
      <g
         id="g2553"
         style="fill:#cacad2;fill-opacity:1">
        <path
           d="m 436.427,140.899 c -5.632,0 -10.199,4.566 -10.199,10.199 v 13.542 c 0,5.633 4.567,10.199 10.199,10.199 5.632,0 10.199,-4.566 10.199,-10.199 v -13.542 c 0,-5.633 -4.567,-10.199 -10.199,-10.199 z"
           id="path2551"
           style="fill:#cacad2;fill-opacity:1" />
      </g>
    </g>
    <g
       id="g2561"
       transform="matrix(0.03355885,0,0,0.03906258,28.908935,10)"
       style="fill:#cacad2;fill-opacity:1">
      <g
         id="g2559"
         style="fill:#cacad2;fill-opacity:1">
        <path
           d="m 398.361,373.001 c -5.632,0 -10.199,4.566 -10.199,10.199 v 13.543 c 0,5.633 4.567,10.199 10.199,10.199 5.632,0 10.199,-4.566 10.199,-10.199 V 383.2 c 0,-5.633 -4.567,-10.199 -10.199,-10.199 z"
           id="path2557"
           style="fill:#cacad2;fill-opacity:1" />
      </g>
    </g>
    <g
       id="g2567"
       transform="matrix(0.03355885,0,0,0.03906258,28.908935,10)"
       style="fill:#cacad2;fill-opacity:1">
      <g
         id="g2565"
         style="fill:#cacad2;fill-opacity:1">
        <path
           d="m 436.427,373.001 c -5.632,0 -10.199,4.566 -10.199,10.199 v 13.543 c 0,5.633 4.567,10.199 10.199,10.199 5.632,0 10.199,-4.566 10.199,-10.199 V 383.2 c 0,-5.633 -4.567,-10.199 -10.199,-10.199 z"
           id="path2563"
           style="fill:#cacad2;fill-opacity:1" />
      </g>
    </g>
    <g
       id="g2573"
       transform="matrix(0.03355885,0,0,0.03906258,28.908935,10)"
       style="fill:#cacad2;fill-opacity:1">
      <g
         id="g2571"
         style="fill:#cacad2;fill-opacity:1">
        <path
           d="m 398.361,432.379 c -5.632,0 -10.199,4.566 -10.199,10.199 v 13.543 c 0,5.633 4.567,10.199 10.199,10.199 5.632,0 10.199,-4.566 10.199,-10.199 v -13.542 c 0,-5.634 -4.567,-10.2 -10.199,-10.2 z"
           id="path2569"
           style="fill:#cacad2;fill-opacity:1" />
      </g>
    </g>
    <g
       id="g2579"
       transform="matrix(0.03355885,0,0,0.03906258,28.908935,10)"
       style="fill:#cacad2;fill-opacity:1">
      <g
         id="g2577"
         style="fill:#cacad2;fill-opacity:1">
        <path
           d="m 436.427,432.379 c -5.632,0 -10.199,4.566 -10.199,10.199 v 13.543 c 0,5.633 4.567,10.199 10.199,10.199 5.632,0 10.199,-4.566 10.199,-10.199 v -13.542 c 0,-5.634 -4.567,-10.2 -10.199,-10.2 z"
           id="path2575"
           style="fill:#cacad2;fill-opacity:1" />
      </g>
    </g>
    <g
       id="g2585"
       transform="matrix(0.03355885,0,0,0.03906258,28.908935,10)"
       style="fill:#cacad2;fill-opacity:1">
      <g
         id="g2583"
         style="fill:#cacad2;fill-opacity:1">
        <path
           d="M 113.405,253.414 H 76.428 c -5.632,0 -10.199,4.566 -10.199,10.199 0,5.633 4.567,10.199 10.199,10.199 h 36.978 c 5.632,0 10.199,-4.566 10.199,-10.199 0,-5.633 -4.567,-10.199 -10.2,-10.199 z"
           id="path2581"
           style="fill:#cacad2;fill-opacity:1" />
      </g>
    </g>
    <g
       id="g2591"
       transform="matrix(0.03355885,0,0,0.03906258,28.908935,10)"
       style="fill:#cacad2;fill-opacity:1">
      <g
         id="g2589"
         style="fill:#cacad2;fill-opacity:1">
        <path
           d="M 113.405,292.928 H 76.428 c -5.632,0 -10.199,4.566 -10.199,10.199 0,5.633 4.567,10.199 10.199,10.199 h 36.978 c 5.632,0 10.199,-4.566 10.199,-10.199 0,-5.633 -4.567,-10.199 -10.2,-10.199 z"
           id="path2587"
           style="fill:#cacad2;fill-opacity:1" />
      </g>
    </g>
    <g
       id="g2597"
       transform="matrix(0.03355885,0,0,0.03906258,28.908935,10)"
       style="fill:#cacad2;fill-opacity:1">
      <g
         id="g2595"
         style="fill:#cacad2;fill-opacity:1">
        <path
           d="M 113.405,333.718 H 76.428 c -5.632,0 -10.199,4.566 -10.199,10.199 0,5.633 4.567,10.199 10.199,10.199 h 36.978 c 5.632,0 10.199,-4.566 10.199,-10.199 0,-5.633 -4.567,-10.199 -10.2,-10.199 z"
           id="path2593"
           style="fill:#cacad2;fill-opacity:1" />
      </g>
    </g>
    <g
       id="g2603"
       transform="matrix(0.03355885,0,0,0.03906258,28.908935,10)"
       style="fill:#cacad2;fill-opacity:1">
      <g
         id="g2601"
         style="fill:#cacad2;fill-opacity:1">
        <path
           d="M 113.405,373.232 H 76.428 c -5.632,0 -10.199,4.566 -10.199,10.199 0,5.633 4.567,10.199 10.199,10.199 h 36.978 c 5.632,0 10.199,-4.566 10.199,-10.199 0,-5.633 -4.567,-10.199 -10.2,-10.199 z"
           id="path2599"
           style="fill:#cacad2;fill-opacity:1" />
      </g>
    </g>
    <g
       id="g2609"
       transform="matrix(0.03355885,0,0,0.03906258,28.908935,10)"
       style="fill:#cacad2;fill-opacity:1">
      <g
         id="g2607"
         style="fill:#cacad2;fill-opacity:1">
        <path
           d="M 113.405,414.021 H 76.428 c -5.632,0 -10.199,4.566 -10.199,10.199 0,5.633 4.567,10.199 10.199,10.199 h 36.978 c 5.632,0 10.199,-4.566 10.199,-10.199 0,-5.632 -4.567,-10.199 -10.2,-10.199 z"
           id="path2605"
           style="fill:#cacad2;fill-opacity:1" />
      </g>
    </g>
    <g
       id="g2615"
       transform="matrix(0.03355885,0,0,0.03906258,28.908935,10)"
       style="fill:#cacad2;fill-opacity:1">
      <g
         id="g2613"
         style="fill:#cacad2;fill-opacity:1">
        <path
           d="M 113.405,453.535 H 76.428 c -5.632,0 -10.199,4.566 -10.199,10.199 0,5.633 4.567,10.199 10.199,10.199 h 36.978 c 5.632,0 10.199,-4.566 10.199,-10.199 0,-5.633 -4.567,-10.199 -10.2,-10.199 z"
           id="path2611"
           style="fill:#cacad2;fill-opacity:1" />
      </g>
    </g>
    <g
       id="g2621"
       transform="matrix(0.03355885,0,0,0.03906258,28.908935,10)"
       style="fill:#cacad2;fill-opacity:1">
      <g
         id="g2619"
         style="fill:#cacad2;fill-opacity:1">
        <path
           d="M 328.753,281.692 H 302.65 c -5.632,0 -10.199,4.566 -10.199,10.199 0,5.633 4.567,10.199 10.199,10.199 h 26.103 c 5.632,0 10.199,-4.566 10.199,-10.199 0,-5.633 -4.567,-10.199 -10.199,-10.199 z"
           id="path2617"
           style="fill:#cacad2;fill-opacity:1" />
      </g>
    </g>
    <g
       id="g2627"
       transform="matrix(0.03355885,0,0,0.03906258,28.908935,10)"
       style="fill:#cacad2;fill-opacity:1">
      <g
         id="g2625"
         style="fill:#cacad2;fill-opacity:1">
        <path
           d="M 328.753,329.547 H 302.65 c -5.632,0 -10.199,4.566 -10.199,10.199 0,5.633 4.567,10.199 10.199,10.199 h 26.103 c 5.632,0 10.199,-4.566 10.199,-10.199 0,-5.632 -4.567,-10.199 -10.199,-10.199 z"
           id="path2623"
           style="fill:#cacad2;fill-opacity:1" />
      </g>
    </g>
    <g
       id="g2633"
       transform="matrix(0.03355885,0,0,0.03906258,28.908935,10)"
       style="fill:#cacad2;fill-opacity:1">
      <g
         id="g2631"
         style="fill:#cacad2;fill-opacity:1">
        <path
           d="M 328.753,378.489 H 302.65 c -5.632,0 -10.199,4.566 -10.199,10.199 0,5.633 4.567,10.199 10.199,10.199 h 26.103 c 5.632,0 10.199,-4.566 10.199,-10.199 0,-5.632 -4.567,-10.199 -10.199,-10.199 z"
           id="path2629"
           style="fill:#cacad2;fill-opacity:1" />
      </g>
    </g>
    <g
       id="g2639"
       transform="matrix(0.03355885,0,0,0.03906258,28.908935,10)"
       style="fill:#cacad2;fill-opacity:1">
      <g
         id="g2637"
         style="fill:#cacad2;fill-opacity:1">
        <path
           d="M 328.753,428.52 H 302.65 c -5.632,0 -10.199,4.566 -10.199,10.199 0,5.633 4.567,10.199 10.199,10.199 h 26.103 c 5.632,0 10.199,-4.566 10.199,-10.199 0,-5.633 -4.567,-10.199 -10.199,-10.199 z"
           id="path2635"
           style="fill:#cacad2;fill-opacity:1" />
      </g>
    </g>
    <g
       id="g2645"
       transform="matrix(0.03355885,0,0,0.03906258,28.908935,10)"
       style="fill:#cacad2;fill-opacity:1">
      <g
         id="g2643"
         style="fill:#cacad2;fill-opacity:1">
        <path
           d="m 167.267,43.857 c -5.632,0 -10.199,4.566 -10.199,10.199 v 12.239 c 0,5.633 4.567,10.199 10.199,10.199 5.632,0 10.199,-4.566 10.199,-10.199 V 54.056 c 0,-5.633 -4.567,-10.199 -10.199,-10.199 z"
           id="path2641"
           style="fill:#cacad2;fill-opacity:1" />
      </g>
    </g>
    <g
       id="g2647"
       transform="matrix(0.02237257,0,0,0.02237257,29.272623,20)" />
    <g
       id="g2649"
       transform="matrix(0.02237257,0,0,0.02237257,29.272623,20)" />
    <g
       id="g2651"
       transform="matrix(0.02237257,0,0,0.02237257,29.272623,20)" />
    <g
       id="g2653"
       transform="matrix(0.02237257,0,0,0.02237257,29.272623,20)" />
    <g
       id="g2655"
       transform="matrix(0.02237257,0,0,0.02237257,29.272623,20)" />
    <g
       id="g2657"
       transform="matrix(0.02237257,0,0,0.02237257,29.272623,20)" />
    <g
       id="g2659"
       transform="matrix(0.02237257,0,0,0.02237257,29.272623,20)" />
    <g
       id="g2661"
       transform="matrix(0.02237257,0,0,0.02237257,29.272623,20)" />
    <g
       id="g2663"
       transform="matrix(0.02237257,0,0,0.02237257,29.272623,20)" />
    <g
       id="g2665"
       transform="matrix(0.02237257,0,0,0.02237257,29.272623,20)" />
    <g
       id="g2667"
       transform="matrix(0.02237257,0,0,0.02237257,29.272623,20)" />
    <g
       id="g2669"
       transform="matrix(0.02237257,0,0,0.02237257,29.272623,20)" />
    <g
       id="g2671"
       transform="matrix(0.02237257,0,0,0.02237257,29.272623,20)" />
    <g
       id="g2673"
       transform="matrix(0.02237257,0,0,0.02237257,29.272623,20)" />
    <g
       id="g2675"
       transform="matrix(0.02237257,0,0,0.02237257,29.272623,20)" />
    <path
       style="fill:none;stroke:#cacad2;stroke-width:2.30194;stroke-linecap:butt;stroke-linejoin:miter;stroke-miterlimit:4;stroke-dasharray:none;stroke-opacity:1"
       d="m 5.2386337,39.036641 c 1.3090911,-0.277446 2.5758187,-0.75389 3.743267,-1.407924 0.6382247,-0.35755 1.2493113,-0.768938 1.9222173,-1.055941 1.148529,-0.489862 2.497177,-0.58623 3.642101,-0.088 0.765493,0.333115 1.39992,0.905382 2.124556,1.319927 1.003257,0.573936 2.203704,0.834956 3.338592,0.615965 1.291893,-0.249287 2.394299,-1.078618 3.642095,-1.495917 0.845304,-0.282694 1.741748,-0.371111 2.630405,-0.439975 0.983351,-0.0762 1.995491,-0.12757 2.933914,0.17599 1.059635,0.34277 1.927951,1.106042 2.933912,1.583912 0.784403,0.372622 1.670366,0.56835 2.529235,0.439976 0.636137,-0.09508 1.233254,-0.361828 1.805652,-0.655205 0.572399,-0.293378 1.132095,-0.61737 1.735277,-0.840713 0.613936,-0.227326 1.267566,-0.346951 1.922218,-0.351982 1.544601,-0.01187 3.08315,0.64091 4.147944,1.759904"
       id="path4967-5-7"
       inkscape:path-effect="#path-effect5692"
       inkscape:original-d="m 5.2386337,39.036641 c 1.248016,-0.469082 2.495773,-0.938389 3.743267,-1.407924 1.2474953,-0.469535 1.2817413,-0.70373 1.9222173,-1.055941 0.640479,-0.352209 2.428329,-0.05843 3.642101,-0.088 1.213769,-0.02958 1.416632,0.880177 2.124556,1.319927 0.707926,0.439749 2.225987,0.410871 3.338592,0.615965 1.112598,0.205095 2.428323,-0.99705 3.642095,-1.495917 1.213774,-0.498867 1.753866,-0.293092 2.630405,-0.439975 0.876543,-0.146887 1.956205,0.117555 2.933914,0.17599 0.977708,0.05843 1.956201,1.056169 2.933912,1.583912 0.97771,0.527744 1.686417,0.293545 2.529235,0.439976 0.842816,0.146432 2.36088,-0.997052 3.540929,-1.495918 1.180047,-0.498866 1.281739,-0.234427 1.922218,-0.351982 0.640477,-0.117552 2.765559,1.173498 4.147944,1.759904" />
    <g
       id="g1266"
       transform="matrix(-0.032269,0,0,0.03906263,26.521672,18.833237)"
       style="fill:#cacad2;fill-opacity:1">
      <g
         id="g1264"
         style="fill:#cacad2;fill-opacity:1">
        <path
           d="m 510.652,230.062 c -1.357,-2.116 -3.567,-3.524 -6.05,-3.857 l -128,-17.067 c -4.617,-0.606 -8.96,2.662 -9.591,7.33 -0.631,4.668 2.662,8.969 7.33,9.591 l 18.193,2.423 v 21.675 l -42.667,-4.574 v -42.47 l 15.633,-23.45 c 1.707,-2.56 1.903,-5.837 0.521,-8.576 -1.391,-2.748 -4.147,-4.54 -7.219,-4.685 l -179.2,-8.533 c -2.876,-0.026 -5.666,1.212 -7.347,3.567 l -42.667,59.733 c -0.171,0.239 -0.205,0.529 -0.35,0.777 L 9.438,209.113 C 7.015,208.857 4.625,209.634 2.825,211.246 1.033,212.868 0,215.172 0,217.595 0,292.876 88.047,354.128 196.267,354.128 h 273.067 c 3.746,0 7.057,-2.441 8.158,-6.025 L 511.625,237.17 c 0.733,-2.397 0.375,-5 -0.973,-7.108 z M 409.6,251.728 v -20.975 l 34.133,4.548 v 20.335 l -34.185,-3.661 c 10e-4,-0.084 0.052,-0.161 0.052,-0.247 z m -145.553,-72.746 78.899,3.755 -8.713,13.056 c -0.93,1.399 -1.434,3.055 -1.434,4.736 v 43.23 l -76.834,-8.235 z m -80.606,-3.84 63.479,3.021 -7.902,55.287 c -0.009,0.085 0.026,0.171 0.017,0.256 l -90.505,-9.694 z m 279.586,161.92 h -266.76 c -75.418,0 -140.015,-31.258 -166.417,-75.332 l 441.267,49.033 z M 476.228,294.165 21.564,243.647 c -1.809,-5.385 -3.26,-10.863 -3.925,-16.486 l 463.915,49.698 z m 10.437,-33.92 -25.865,-2.773 V 237.58 l 31.548,4.207 z"
           id="path1262"
           style="fill:#cacad2;fill-opacity:1" />
      </g>
    </g>
    <g
       id="Sun"
       transform="matrix(0.26458333,0,0,0.26458333,4.8051739,5)"
       style="fill:#cacad2;fill-opacity:1">
      <path
         d="m 32.131851,18.279301 c -7.711901,0 -13.986301,6.274398 -13.986301,13.986297 0,7.711899 6.2744,13.986401 13.986301,13.986401 7.711901,0 13.986298,-6.274498 13.986298,-13.986401 0,-7.711902 -6.274399,-13.986297 -13.986298,-13.986297 z m 0,26 c -6.6245,0 -12.0137,-5.389702 -12.0137,-12.013703 0,-6.624 5.3892,-12.013597 12.0137,-12.013597 6.6245,0 12.013699,5.389599 12.013699,12.013597 0,6.623999 -5.389199,12.013703 -12.013699,12.013703 z"
         id="path1549"
         style="fill:#cacad2;fill-opacity:1" />
      <path
         d="m 32.00005,13.1689 c 0.5522,0 1,-0.4472 1,-1 V 1 c 0,-0.5527 -0.4478,-1 -1,-1 -0.5523,0 -1,0.4473 -1,1 v 11.1689 c 0,0.5528 0.4477,1 1,1 z"
         id="path1551"
         style="fill:#cacad2;fill-opacity:1" />
      <path
         d="m 32.00005,50.830101 c -0.5523,0 -1,0.447201 -1,1 V 63 c 0,0.5527 0.4477,1 1,1 0.5522,0 1,-0.4473 1,-1 V 51.830101 c 0,-0.552799 -0.4478,-1 -1,-1 z"
         id="path1553"
         style="fill:#cacad2;fill-opacity:1" />
      <path
         d="M 62.263649,30.445299 H 51.09375 c -0.5522,0 -1,0.4473 -1,1 0,0.5527 0.4478,1.000002 1,1.000002 h 11.169899 c 0.552299,0 1,-0.447302 1,-1.000002 0,-0.5527 -0.447701,-1 -1,-1 z"
         id="path1555"
         style="fill:#cacad2;fill-opacity:1" />
      <path
         d="m 13.90625,31.445299 c 0,-0.5527 -0.447794,-1 -0.999999,-1 H 1.7363508 c -0.5523,0 -1,0.4473 -1,1 0,0.5527 0.4477,1.000002 1,1.000002 H 12.906251 c 0.552205,0 0.999999,-0.447302 0.999999,-1.000002 z"
         id="path1557"
         style="fill:#cacad2;fill-opacity:1" />
      <path
         d="m 45.180149,19.877899 c 0.255901,0 0.5117,-0.0976 0.7071,-0.2929 L 53.786148,11.6865 c 0.390602,-0.3906 0.390602,-1.0234 0,-1.414 -0.390598,-0.3907003 -1.023498,-0.3907003 -1.414097,0 l -7.898903,7.8984 c -0.390598,0.3906 -0.390598,1.0234 0,1.414099 0.195309,0.195301 0.451203,0.2929 0.707001,0.2929 z"
         id="path1559"
         style="fill:#cacad2;fill-opacity:1" />
      <path
         d="m 45.887249,45.203098 c -0.390698,-0.390598 -1.023499,-0.390598 -1.414101,0 -0.390598,0.390702 -0.390598,1.023503 0,1.414101 l 7.898903,7.8974 c 0.195298,0.1954 0.451199,0.292999 0.7071,0.292999 0.255799,0 0.5117,-0.0976 0.706997,-0.292999 0.390602,-0.390599 0.390602,-1.0234 0,-1.413998 z"
         id="path1561"
         style="fill:#cacad2;fill-opacity:1" />
      <path
         d="m 18.112751,19.584999 c 0.1954,0.195301 0.451199,0.2929 0.7071,0.2929 0.2558,0 0.5117,-0.0976 0.706999,-0.2929 0.390606,-0.390699 0.390606,-1.023498 0,-1.414099 l -7.8979,-7.8984 c -0.390699,-0.3907003 -1.023495,-0.3907003 -1.4141,0 -0.3905998,0.3906 -0.3905998,1.0234 0,1.414 z"
         id="path1563"
         style="fill:#cacad2;fill-opacity:1" />
      <path
         d="m 19.571251,45.2701 c -0.0177,-0.0208 -0.0246,-0.0472 -0.0444,-0.067 -0.390601,-0.390598 -1.023394,-0.390598 -1.414099,0 l -3.940101,3.940003 -4.034195,3.8447 c -0.3999048,0.381198 -0.4152046,1.0139 -0.034,1.413799 0.01929,0.0203 0.04549,0.0278 0.066,0.046 0.01769,0.0209 0.02459,0.0473 0.04439,0.067 0.195301,0.1954 0.451201,0.292999 0.707,0.292999 0.255901,0 0.511701,-0.0976 0.7071,-0.292999 l 3.940101,-3.9399 4.0342,-3.8447 c 0.3999,-0.381198 0.415205,-1.0139 0.034,-1.413799 -0.0193,-0.0203 -0.0455,-0.0279 -0.066,-0.0461 z"
         id="path1565"
         style="fill:#cacad2;fill-opacity:1" />
    </g>
    <g
       id="g1568"
       transform="matrix(0.26458333,0,0,0.26458333,4.8051739,5)" />
    <g
       id="g1570"
       transform="matrix(0.26458333,0,0,0.26458333,4.8051739,5)" />
    <g
       id="g1572"
       transform="matrix(0.26458333,0,0,0.26458333,4.8051739,5)" />
    <g
       id="g1574"
       transform="matrix(0.26458333,0,0,0.26458333,4.8051739,5)" />
    <g
       id="g1576"
       transform="matrix(0.26458333,0,0,0.26458333,4.8051739,5)" />
    <g
       id="g1578"
       transform="matrix(0.26458333,0,0,0.26458333,4.8051739,5)" />
    <g
       id="g1580"
       transform="matrix(0.26458333,0,0,0.26458333,4.8051739,5)" />
    <g
       id="g1582"
       transform="matrix(0.26458333,0,0,0.26458333,4.8051739,5)" />
    <g
       id="g1584"
       transform="matrix(0.26458333,0,0,0.26458333,4.8051739,5)" />
    <g
       id="g1586"
       transform="matrix(0.26458333,0,0,0.26458333,4.8051739,5)" />
    <g
       id="g1588"
       transform="matrix(0.26458333,0,0,0.26458333,4.8051739,5)" />
    <g
       id="g1590"
       transform="matrix(0.26458333,0,0,0.26458333,4.8051739,5)" />
    <g
       id="g1592"
       transform="matrix(0.26458333,0,0,0.26458333,4.8051739,5)" />
    <g
       id="g1594"
       transform="matrix(0.26458333,0,0,0.26458333,4.8051739,5)" />
    <g
       id="g1596"
       transform="matrix(0.26458333,0,0,0.26458333,4.8051739,5)" />
  </g>
</svg>
