<?xml version="1.0" encoding="UTF-8" standalone="no"?>
<!-- Created with Inkscape (http://www.inkscape.org/) -->

<svg
   width="50mm"
   height="50mm"
   viewBox="0 0 50 50"
   version="1.1"
   id="svg5"
   inkscape:version="1.1 (c4e8f9e, 2021-05-24)"
   sodipodi:docname="buttonT.svg"
   xmlns:inkscape="http://www.inkscape.org/namespaces/inkscape"
   xmlns:sodipodi="http://sodipodi.sourceforge.net/DTD/sodipodi-0.dtd"
   xmlns="http://www.w3.org/2000/svg"
   xmlns:svg="http://www.w3.org/2000/svg">
  <sodipodi:namedview
     id="namedview7"
     pagecolor="#ffffff"
     bordercolor="#666666"
     borderopacity="1.0"
     inkscape:pageshadow="2"
     inkscape:pageopacity="0.0"
     inkscape:pagecheckerboard="0"
     inkscape:document-units="mm"
     showgrid="false"
     width="50mm"
     inkscape:zoom="2.5820338"
     inkscape:cx="55.576345"
     inkscape:cy="13.748852"
     inkscape:window-width="1592"
     inkscape:window-height="1251"
     inkscape:window-x="529"
     inkscape:window-y="25"
     inkscape:window-maximized="0"
     inkscape:current-layer="layer1" />
  <defs
     id="defs2">
    <rect
       x="91.083494"
       y="66.067605"
       width="30.788787"
       height="61.256857"
       id="rect7063" />
  </defs>
  <g
     inkscape:label="Layer 1"
     inkscape:groupmode="layer"
     id="layer1">
    <text
       xml:space="preserve"
       transform="scale(0.26458333)"
       id="text7061"
       style="fill:black;fill-opacity:1;line-height:1.25;stroke:none;font-family:sans-serif;font-style:normal;font-weight:normal;font-size:40px;white-space:pre;shape-inside:url(#rect7063)" />
    <g
       id="g921"
       transform="matrix(0.10238419,0,0,0.10209589,-0.07056887,0)"
       style="fill:#cacad2;fill-opacity:1">
      <g
         id="g919"
         style="fill:#cacad2;fill-opacity:1">
        <g
           id="g917"
           style="fill:#cacad2;fill-opacity:1">
          <path
             d="m 394.739,213.175 h -0.1 c -0.4,-9 -8.8,-24.3 -28.1,-18.8 l -141.8,55.2 -141.8,-55.1 c -18.6,-5.6 -28.1,7.8 -28.1,18.7 v 117.8 c 0,53.2 35.4,95.9 78.2,95.9 h 183.5 c 42.7,0 77.1,-43.8 78.2,-96.9 z m -40.7,116.8 h -0.1 c 0,30.2 -17.7,55.2 -37.5,55.2 h -183.4 c -20.8,0 -37.5,-25 -37.5,-55.2 v -86.5 l 123,46.9 c 4.2,2.1 9.4,2.1 14.6,0 l 120.9,-46.9 z"
             id="path913"
             style="fill:#cacad2;fill-opacity:1" />
          <path
             d="m 484.239,456.075 -25.6,-31.4 c 0.3,-1 0.5,-2 0.6,-3 v -311.7 c 0,-17 -22.1,-23.2 -24,-24 l -203.2,-84.4 c -5.2,-2.1 -10.4,-2.1 -15.6,0 l -203.3,84.5 c -20.8,11 -11.8,33.7 0,37.5 l 203.3,84.4 c 5.8,2 11.1,2.3 15.6,0 l 185.5,-77.1 v 289.4 l -29.2,35.8 c -7.3,9.4 -5.2,21.9 3.1,29.2 9.4,7.3 21.9,5.2 29.2,-3.1 l 16.7,-19.8 16.7,19.8 c 5,6.8 16.7,10.1 27.1,3.1 9.4,-7.3 10.4,-20.9 3.1,-29.2 z m -260.6,-288.7 -150.1,-62.6 151.1,-62.5 149.1,62.5 z"
             id="path915"
             style="fill:#cacad2;fill-opacity:1" />
        </g>
      </g>
    </g>
  </g>
</svg>
