<?xml version="1.0" encoding="UTF-8" standalone="no"?>
<!-- Created with Inkscape (http://www.inkscape.org/) -->

<svg
   width="50mm"
   height="50mm"
   viewBox="0 0 50 50"
   version="1.1"
   id="svg5"
   inkscape:version="1.1 (c4e8f9e, 2021-05-24)"
   sodipodi:docname="buttonS.svg"
   xmlns:inkscape="http://www.inkscape.org/namespaces/inkscape"
   xmlns:sodipodi="http://sodipodi.sourceforge.net/DTD/sodipodi-0.dtd"
   xmlns="http://www.w3.org/2000/svg"
   xmlns:svg="http://www.w3.org/2000/svg">
  <sodipodi:namedview
     id="namedview7"
     pagecolor="#ffffff"
     bordercolor="#666666"
     borderopacity="1.0"
     inkscape:pageshadow="2"
     inkscape:pageopacity="0.0"
     inkscape:pagecheckerboard="0"
     inkscape:document-units="mm"
     showgrid="false"
     width="50mm"
     inkscape:zoom="2.5820338"
     inkscape:cx="46.281346"
     inkscape:cy="19.945517"
     inkscape:window-width="1592"
     inkscape:window-height="1251"
     inkscape:window-x="299"
     inkscape:window-y="55"
     inkscape:window-maximized="0"
     inkscape:current-layer="layer1"
     inkscape:snap-smooth-nodes="true"
     inkscape:snap-page="false"
     inkscape:snap-bbox="true" />
  <defs
     id="defs2">
    <rect
       x="91.083494"
       y="66.067605"
       width="30.788787"
       height="61.256857"
       id="rect7063" />
  </defs>
  <g
     inkscape:label="Layer 1"
     inkscape:groupmode="layer"
     id="layer1">
    <text
       xml:space="preserve"
       transform="scale(0.26458333)"
       id="text7061"
       style="fill:black;fill-opacity:1;line-height:1.25;stroke:none;font-family:sans-serif;font-style:normal;font-weight:normal;font-size:40px;white-space:pre;shape-inside:url(#rect7063)" />
    <text
       xml:space="preserve"
       style="font-style:normal;font-weight:normal;font-size:5.17817px;line-height:1.25;font-family:sans-serif;fill:#cacad2;fill-opacity:1;stroke:none;stroke-width:0.885045"
       x="28.25396"
       y="41.656673"
       id="text7974"
       transform="scale(0.88140057,1.1345579)"><tspan
         sodipodi:role="line"
         id="tspan7972"
         style="font-style:normal;font-variant:normal;font-weight:normal;font-stretch:normal;font-size:5.17817px;font-family:Futura;-inkscape-font-specification:Futura;text-align:center;text-anchor:middle;fill:#cacad2;fill-opacity:1;stroke-width:0.885045"
         x="28.25396"
         y="41.656673">DISPLAY SETTINGS</tspan></text>
    <g
       id="g2541"
       transform="matrix(0.03133468,0,0,0.03133487,17.5,9.9999687)"
       style="fill:#cacad2;fill-opacity:1">
      <g
         id="g2539"
         style="fill:#cacad2;fill-opacity:1">
        <path
           d="m 454.2,189.101 -33.6,-5.7 c -3.5,-11.3 -8,-22.2 -13.5,-32.6 l 19.8,-27.7 c 8.4,-11.8 7.1,-27.9 -3.2,-38.1 l -29.8,-29.8 c -5.6,-5.6 -13,-8.7 -20.9,-8.7 -6.2,0 -12.1,1.9 -17.1,5.5 l -27.8,19.8 c -10.8,-5.7 -22.1,-10.4 -33.8,-13.9 l -5.6,-33.2 c -2.4,-14.3 -14.7,-24.7 -29.2,-24.7 h -42.1 c -14.5,0 -26.8,10.4 -29.2,24.7 l -5.8,34 c -11.2,3.5 -22.1,8.1 -32.5,13.7 l -27.5,-19.8 c -5,-3.6 -11,-5.5 -17.2,-5.5 -7.9,0 -15.4,3.1 -20.9,8.7 l -29.9,29.8 c -10.2,10.2 -11.6,26.3 -3.2,38.1 l 20,28.1 c -5.5,10.5 -9.9,21.4 -13.3,32.7 l -33.2,5.6 c -14.3,2.4 -24.7,14.7 -24.7,29.2 v 42.1 c 0,14.5 10.4,26.8 24.7,29.2 l 34,5.8 c 3.5,11.2 8.1,22.1 13.7,32.5 l -19.7,27.4 c -8.4,11.8 -7.1,27.9 3.2,38.1 l 29.8,29.8 c 5.6,5.6 13,8.7 20.9,8.7 6.2,0 12.1,-1.9 17.1,-5.5 l 28.1,-20 c 10.1,5.3 20.7,9.6 31.6,13 l 5.6,33.6 c 2.4,14.3 14.7,24.7 29.2,24.7 h 42.2 c 14.5,0 26.8,-10.4 29.2,-24.7 l 5.7,-33.6 c 11.3,-3.5 22.2,-8 32.6,-13.5 l 27.7,19.8 c 5,3.6 11,5.5 17.2,5.5 v 0 c 7.9,0 15.3,-3.1 20.9,-8.7 l 29.8,-29.8 c 10.2,-10.2 11.6,-26.3 3.2,-38.1 l -19.8,-27.8 c 5.5,-10.5 10.1,-21.4 13.5,-32.6 l 33.6,-5.6 c 14.3,-2.4 24.7,-14.7 24.7,-29.2 v -42.1 c 0.2,-14.5 -10.2,-26.8 -24.5,-29.2 z m -2.3,71.3 c 0,1.3 -0.9,2.4 -2.2,2.6 l -42,7 c -5.3,0.9 -9.5,4.8 -10.8,9.9 -3.8,14.7 -9.6,28.8 -17.4,41.9 -2.7,4.6 -2.5,10.3 0.6,14.7 l 24.7,34.8 c 0.7,1 0.6,2.5 -0.3,3.4 l -29.8,29.8 c -0.7,0.7 -1.4,0.8 -1.9,0.8 -0.6,0 -1.1,-0.2 -1.5,-0.5 l -34.7,-24.7 c -4.3,-3.1 -10.1,-3.3 -14.7,-0.6 -13.1,7.8 -27.2,13.6 -41.9,17.4 -5.2,1.3 -9.1,5.6 -9.9,10.8 l -7.1,42 c -0.2,1.3 -1.3,2.2 -2.6,2.2 h -42.1 c -1.3,0 -2.4,-0.9 -2.6,-2.2 l -7,-42 c -0.9,-5.3 -4.8,-9.5 -9.9,-10.8 -14.3,-3.7 -28.1,-9.4 -41,-16.8 -2.1,-1.2 -4.5,-1.8 -6.8,-1.8 -2.7,0 -5.5,0.8 -7.8,2.5 l -35,24.9 c -0.5,0.3 -1,0.5 -1.5,0.5 -0.4,0 -1.2,-0.1 -1.9,-0.8 L 75,375.601 c -0.9,-0.9 -1,-2.3 -0.3,-3.4 l 24.6,-34.5 c 3.1,-4.4 3.3,-10.2 0.6,-14.8 -7.8,-13 -13.8,-27.1 -17.6,-41.8 -1.4,-5.1 -5.6,-9 -10.8,-9.9 l -42.3,-7.2 c -1.3,-0.2 -2.2,-1.3 -2.2,-2.6 v -42.1 c 0,-1.3 0.9,-2.4 2.2,-2.6 l 41.7,-7 c 5.3,-0.9 9.6,-4.8 10.9,-10 3.7,-14.7 9.4,-28.9 17.1,-42 2.7,-4.6 2.4,-10.3 -0.7,-14.6 l -24.9,-35 c -0.7,-1 -0.6,-2.5 0.3,-3.4 l 29.8,-29.8 c 0.7,-0.7 1.4,-0.8 1.9,-0.8 0.6,0 1.1,0.2 1.5,0.5 l 34.5,24.6 c 4.4,3.1 10.2,3.3 14.8,0.6 13,-7.8 27.1,-13.8 41.8,-17.6 5.1,-1.4 9,-5.6 9.9,-10.8 l 7.2,-42.3 c 0.2,-1.3 1.3,-2.2 2.6,-2.2 h 42.1 c 1.3,0 2.4,0.9 2.6,2.2 l 7,41.7 c 0.9,5.3 4.8,9.6 10,10.9 15.1,3.8 29.5,9.7 42.9,17.6 4.6,2.7 10.3,2.5 14.7,-0.6 l 34.5,-24.8 c 0.5,-0.3 1,-0.5 1.5,-0.5 0.4,0 1.2,0.1 1.9,0.8 l 29.8,29.8 c 0.9,0.9 1,2.3 0.3,3.4 l -24.7,34.7 c -3.1,4.3 -3.3,10.1 -0.6,14.7 7.8,13.1 13.6,27.2 17.4,41.9 1.3,5.2 5.6,9.1 10.8,9.9 l 42,7.1 c 1.3,0.2 2.2,1.3 2.2,2.6 v 42.1 z"
           id="path2535"
           style="fill:#cacad2;fill-opacity:1" />
        <path
           d="m 239.4,136.001 c -57,0 -103.3,46.3 -103.3,103.3 0,57 46.3,103.3 103.3,103.3 57,0 103.3,-46.3 103.3,-103.3 0,-57 -46.3,-103.3 -103.3,-103.3 z m 0,179.6 c -42.1,0 -76.3,-34.2 -76.3,-76.3 0,-42.1 34.2,-76.3 76.3,-76.3 42.1,0 76.3,34.2 76.3,76.3 0,42.1 -34.2,76.3 -76.3,76.3 z"
           id="path2537"
           style="fill:#cacad2;fill-opacity:1" />
      </g>
    </g>
    <path
       d="M 6.1250552,30.328392 H 19.235284 v 2.569764 l -1.585914,2.896126 c -0.04342,0.07926 -0.0662,0.16838 -0.0662,0.25876 v 0.718206 c 0,0.29759 0.241286,0.538698 0.5387,0.538698 h 13.756244 c 0.297592,0 0.5387,-0.241284 0.5387,-0.538698 v -0.718206 c 0,-0.09038 -0.02276,-0.1795 -0.0662,-0.25876 L 30.7647,32.898156 V 30.328392 H 43.874928 C 44.496602,30.328392 45,29.824464 45,29.203336 V 6.1250552 C 45,5.503751 44.496426,5 43.874944,5 H 6.1250552 C 5.5035742,5 5,5.503751 5,6.1250552 V 29.203514 c 0,0.621128 0.5035742,1.124878 1.1250552,1.124878 z M 8.3075634,7.8703556 H 41.692262 V 27.45786 H 8.3075634 Z"
       id="path2684"
       style="stroke-width:0.176507;fill:#cacad2;fill-opacity:1" />
  </g>
</svg>
